<?xml version="1.0"?><svg fill="#FFFFFF" xmlns="http://www.w3.org/2000/svg"  viewBox="0 0 50 50" width="50px" height="50px">    <path d="M 13 2 C 12.447 2 12 2.448 12 3 L 12 47 C 12 47.358 12.190953 47.689187 12.501953 47.867188 C 12.812953 48.045187 13.194906 48.043281 13.503906 47.863281 L 25 41.158203 L 36.496094 47.863281 C 36.651094 47.954281 36.826 48 37 48 C 37.172 48 37.344047 47.956187 37.498047 47.867188 C 37.809047 47.689188 38 47.358 38 47 L 38 35.820312 C 37.311 35.704313 36.644 35.529734 36 35.302734 L 36 45.259766 L 25.503906 39.136719 C 25.348906 39.045719 25.174 39 25 39 C 24.826 39 24.651094 39.045719 24.496094 39.136719 L 14 45.259766 L 14 4 L 36 4 L 36 12.697266 C 36.644 12.469266 37.311 12.295687 38 12.179688 L 38 3 C 38 2.448 37.553 2 37 2 L 13 2 z M 40.011719 14 C 37.448469 14 34.885906 14.973469 32.941406 16.917969 C 29.052406 20.806969 29.052406 27.169594 32.941406 31.058594 C 36.830406 34.947594 43.193031 34.947594 47.082031 31.058594 C 50.971031 27.169594 50.971031 20.806969 47.082031 16.917969 C 45.137531 14.973469 42.574969 14 40.011719 14 z M 40.011719 15.998047 C 42.062344 15.998047 44.114422 16.774578 45.669922 18.330078 C 48.780922 21.442078 48.780922 26.533531 45.669922 29.644531 C 42.558922 32.755531 37.466469 32.756531 34.355469 29.644531 C 31.244469 26.532531 31.243469 21.441078 34.355469 18.330078 C 35.911469 16.774578 37.961094 15.998047 40.011719 15.998047 z M 36.546875 19.498047 C 36.299375 19.498047 36.051844 19.604406 35.839844 19.816406 C 35.415844 20.240406 35.415844 20.806469 35.839844 21.230469 L 38.597656 23.988281 L 35.839844 26.746094 C 35.415844 27.170094 35.415844 27.736156 35.839844 28.160156 C 36.263844 28.584156 36.829906 28.584156 37.253906 28.160156 L 40.011719 25.402344 L 42.769531 28.160156 C 43.193531 28.584156 43.759594 28.584156 44.183594 28.160156 C 44.607594 27.736156 44.607594 27.170094 44.183594 26.746094 L 41.425781 23.988281 L 44.183594 21.230469 C 44.607594 20.806469 44.607594 20.240406 44.183594 19.816406 C 43.759594 19.392406 43.193531 19.392406 42.769531 19.816406 L 40.011719 22.574219 L 37.253906 19.816406 C 37.041906 19.604406 36.794375 19.498047 36.546875 19.498047 z"/></svg>